<?xml version="1.0" encoding="UTF-8"?>
<svg width="56px" height="56px" viewBox="0 0 56 56" version="1.1" xmlns="http://www.w3.org/2000/svg" xmlns:xlink="http://www.w3.org/1999/xlink">
    <!-- Generator: Sketch 61.2 (89653) - https://sketch.com -->
    <title>telegram</title>
    <desc>Created with Sketch.</desc>
    <g id="Page-1" stroke="none" stroke-width="1" fill="none" fill-rule="evenodd">
        <g id="Desktop-HD" transform="translate(-996.000000, -1994.000000)" fill-rule="nonzero">
            <g id="Group-6" transform="translate(976.000000, 1994.000000)">
                <g id="Group-7" transform="translate(20.000000, 0.000000)">
                    <g id="telegram" transform="translate(7.000000, 6.000000)">
                        <circle id="Oval" fill="#039BE5" cx="21.5" cy="21.5" r="21.5"></circle>
                        <path d="M10.0709416,20.2567468 L30.4682028,12.0998322 C31.4149037,11.7451042 32.2417244,12.339365 31.9349722,13.8241026 L31.9367351,13.8222741 L28.4637356,30.7925329 C28.2063458,31.9956824 27.5170347,32.2882415 26.5527044,31.7214082 L21.2638726,27.6786065 L18.7128927,30.2275281 C18.4308217,30.5200872 18.1928243,30.766934 17.6463116,30.766934 L18.0218187,25.1845399 L27.8237869,16.0000113 C28.2504194,15.6105419 27.728588,15.3911225 27.1662089,15.7787634 L15.0530211,23.6888312 L9.83118121,21.9993022 C8.69760826,21.6262893 8.67292705,20.8235801 10.0709416,20.2567468 Z" id="Path" fill="#FFFFFF"></path>
                    </g>
                </g>
            </g>
        </g>
    </g>
</svg>
