<?xml version="1.0" encoding="UTF-8"?>
<svg width="56px" height="56px" viewBox="0 0 56 56" version="1.1" xmlns="http://www.w3.org/2000/svg" xmlns:xlink="http://www.w3.org/1999/xlink">
    <!-- Generator: Sketch 61.2 (89653) - https://sketch.com -->
    <title>twitter</title>
    <desc>Created with Sketch.</desc>
    <g id="Page-1" stroke="none" stroke-width="1" fill="none" fill-rule="evenodd">
        <g id="Desktop-HD" transform="translate(-538.000000, -1994.000000)" fill="#03A9F4" fill-rule="nonzero">
            <g id="Group-4" transform="translate(530.000000, 1994.000000)">
                <g id="Group-8" transform="translate(8.000000, 0.000000)">
                    <g id="twitter" transform="translate(7.000000, 10.000000)">
                        <path d="M43,4.14346154 C41.4009375,4.84615385 39.6970625,5.31192308 37.920625,5.53807692 C39.748125,4.445 41.1429375,2.72730769 41.7986875,0.656923077 C40.0948125,1.67461538 38.2135625,2.39346154 36.2086875,2.79461538 C34.5908125,1.06884615 32.2849375,0 29.7694375,0 C24.8889375,0 20.9598125,3.96846154 20.9598125,8.83346154 C20.9598125,9.53346154 21.0189375,10.2065385 21.1640625,10.8473077 C13.83525,10.4892308 7.3503125,6.97038462 2.993875,1.61 C2.2333125,2.93192308 1.7871875,4.445 1.7871875,6.07384615 C1.7871875,9.13230769 3.359375,11.8434615 5.702875,13.4130769 C4.2865625,13.3861538 2.897125,12.9742308 1.72,12.3253846 C1.72,12.3523077 1.72,12.3873077 1.72,12.4223077 C1.72,16.7138462 4.7756875,20.2784615 8.78275,21.0996154 C8.0651875,21.2961538 7.283125,21.3903846 6.4715,21.3903846 C5.907125,21.3903846 5.337375,21.3580769 4.8025625,21.2396154 C5.94475,24.7369231 9.185875,27.3080769 13.03975,27.3915385 C10.0405,29.7419231 6.2323125,31.1580769 2.1096875,31.1580769 C1.38675,31.1580769 0.693375,31.1257692 0,31.0369231 C3.9049375,33.5596154 8.5328125,35 13.5235,35 C29.74525,35 38.614,21.5384615 38.614,9.87 C38.614,9.47961538 38.6005625,9.10269231 38.58175,8.72846154 C40.3313125,7.48461538 41.801375,5.93115385 43,4.14346154 Z" id="Path"></path>
                    </g>
                </g>
            </g>
        </g>
    </g>
</svg>
