<?xml version="1.0" encoding="UTF-8"?>
<svg width="56px" height="56px" viewBox="0 0 56 56" version="1.1" xmlns="http://www.w3.org/2000/svg" xmlns:xlink="http://www.w3.org/1999/xlink">
    <!-- Generator: Sketch 61.2 (89653) - https://sketch.com -->
    <title>wechat</title>
    <desc>Created with Sketch.</desc>
    <g id="Page-1" stroke="none" stroke-width="1" fill="none" fill-rule="evenodd">
        <g id="Desktop-HD" transform="translate(-738.000000, -1994.000000)" fill="#4CAF50" fill-rule="nonzero">
            <g id="Group-5" transform="translate(712.000000, 1994.000000)">
                <g id="Group-9" transform="translate(26.000000, 0.000000)">
                    <g id="wechat" transform="translate(6.000000, 10.000000)">
                        <path d="M40.0540301,14.859853 C27.5897513,8.49919144 13.4240244,20.1767237 19.9020152,30.8907567 C22.9088176,35.9236693 29.8511945,39.1020417 38.0657552,36.7167936 C39.7086673,37.3571681 41.1720688,38.395084 42.7642497,39.1666667 C42.3525461,37.7762511 41.9135256,36.4015022 41.4452371,35.0326283 C49.9329661,28.9637582 48.0754217,18.9488497 40.0540301,14.859853 L40.0540301,14.859853 Z M30.1048508,22.0821805 C29.6970495,23.3648878 27.8492612,23.7487208 26.9536594,22.7734716 C25.9663512,21.8706806 26.350738,19.9848072 27.6463362,19.5813908 C29.0785185,18.974308 30.7331378,20.6408483 30.1048508,22.0821805 L30.1048508,22.0821805 Z M39.4315966,22.2662637 L39.4589134,22.2662637 C38.9574545,23.4158044 37.2325919,23.6860542 36.3857702,22.7950132 C35.977969,22.4190135 35.8589456,21.8530557 35.7145567,21.359556 C35.9174817,20.4587234 36.5340615,19.5245992 37.5291746,19.4815159 C38.904772,19.2895994 40.1359805,21.0011813 39.4315966,22.2662637 Z" id="Shape"></path>
                        <path d="M33.9444444,12.2920293 C33.0953187,8.09110777 30.1740144,4.54266143 26.4970661,2.49510405 L26.5496496,2.49510405 L26.5496496,2.49314466 C13.5011573,-4.92508717 -2.74518948,5.42242532 0.394238828,17.6254755 C1.23752199,21.2464191 3.72647322,24.2815065 6.74710182,26.3075107 C6.16284097,27.9788661 5.60779316,29.6502216 5.08195839,31.3333333 C6.98080616,30.3301282 8.87965392,29.2818572 10.7804492,28.2629769 C13.0590665,29.0016651 15.4837491,29.362192 17.9084316,29.2818572 C14.913121,20.6370503 22.5961512,11.4788845 33.9444444,12.2920293 Z M22.1092671,7.2740442 C23.638083,6.65487853 25.4453966,7.95003205 25.3246494,9.60571242 L25.3285444,9.62922504 C25.3441247,11.5200316 22.8454358,12.6995814 21.4432098,11.4181436 C19.9884002,10.3639944 20.4012779,7.80307817 22.1092671,7.2740442 L22.1092671,7.2740442 Z M13.5303703,10.1092744 C13.1953941,11.7512391 11.0161011,12.54479 9.74046491,11.4416562 C8.26228496,10.3894664 8.67711016,7.78152493 10.4123649,7.25053158 C12.112564,6.58825943 14.0445198,8.33211214 13.5303703,10.1092744 L13.5303703,10.1092744 Z" id="Shape"></path>
                    </g>
                </g>
            </g>
        </g>
    </g>
</svg>
