<?xml version="1.0" encoding="UTF-8"?>
<svg width="56px" height="56px" viewBox="0 0 56 56" version="1.1" xmlns="http://www.w3.org/2000/svg" xmlns:xlink="http://www.w3.org/1999/xlink">
    <!-- Generator: Sketch 61.2 (89653) - https://sketch.com -->
    <title>weibo</title>
    <desc>Created with Sketch.</desc>
    <g id="Page-1" stroke="none" stroke-width="1" fill="none" fill-rule="evenodd">
        <g id="Desktop-HD" transform="translate(-369.000000, -1993.000000)" fill-rule="nonzero">
            <g id="Group-3" transform="translate(369.000000, 1993.000000)">
                <g id="Group-10">
                    <g id="weibo" transform="translate(2.000000, 8.000000)">
                        <path d="M51.9508267,12.3350862 C52.1705186,15.1952085 51.6884761,18.6230053 49.8050975,18.7926552 C46.7294101,19.0688799 48.3333746,15.6715331 48.3739003,13.627035 C48.4869457,7.70016547 43.4425624,3.5828943 38.5005598,3.5828943 C37.1013567,3.5828943 33.848636,4.53554342 34.3498749,1.57319617 C34.5759657,0.268197387 35.6786913,0.28559737 36.781417,0.137697508 C45.0934515,-0.97155146 51.3664034,4.75956821 51.9508267,12.3350862 L51.9508267,12.3350862 Z" id="Path" fill="#FF9800"></path>
                        <path d="M38.0361211,19.0094754 C41.6551705,20.9535589 46.002351,21.9223641 45.2828624,27.6920413 C45.1100123,29.075124 44.2587254,30.9221112 43.3987961,32.1023705 C37.2820624,40.5130668 18.8303119,44.0473717 7.30985129,37.6562782 C3.44665107,35.5115291 -0.552668626,32.3742401 0.063109933,26.1255545 C0.594624057,20.7464201 4.27633165,16.5799105 7.89105982,13.0305017 C11.3394197,9.6429201 14.9735936,6.99327027 19.9192677,5.77201473 C25.2862639,4.44718982 26.8721638,8.84025745 25.4267047,13.1729096 C28.5358462,12.9679286 35.1235965,9.56092768 38.0361211,12.8880938 C39.3195332,14.3553266 38.829071,16.9812418 38.0361211,19.0094754 Z M34.1232264,32.6741597 C35.2834829,31.383858 36.4480606,29.4160398 36.4416056,27.1245674 C36.4264543,20.0516422 27.3518229,17.4365155 20.2109522,18.0147779 C16.3045395,18.3298014 13.6772176,19.1389371 10.9353826,20.7205278 C8.69697351,22.0108296 6.07829417,24.1102671 5.42794559,27.2669753 C3.9630408,34.3679506 11.8255607,37.7059052 17.6009154,38.0856596 C24.2729301,38.5236717 30.9514267,36.2106223 34.1232264,32.6741597 Z" id="Shape" fill="#F44336"></path>
                        <path d="M45.2799432,12.7109376 C45.6094444,14.7455966 44.9247363,16.510724 43.55532,16.587733 C41.2721806,16.7174324 42.1251447,15.2542613 41.9872683,13.5134525 C41.9008035,12.4414061 40.8585515,11.2031823 39.9495021,10.8384028 C38.1664567,10.1250562 35.4042553,11.3572003 35.4042553,9.23539956 C35.4042553,7.65874149 37.0073604,7.82289227 37.9140728,7.76412224 C41.8821084,7.50675004 44.8172395,9.83931228 45.2799432,12.7109376 L45.2799432,12.7109376 Z" id="Path" fill="#FF9800"></path>
                        <path d="M28.3788281,26.6719198 C31.4302462,35.9915801 15.5304145,40.3245202 12.622065,32.3168082 C10.6767592,26.9615138 15.3489096,22.7009723 20.2132417,22.1854072 C24.3665015,21.7444346 27.462762,23.8856748 28.3788281,26.6719198 Z M21.0716532,28.2646866 C21.7186649,29.3967358 23.2070053,28.5828012 23.0767488,27.6854987 C22.9208681,26.647787 21.0588411,26.8013595 21.0716532,28.2646866 Z M18.4942832,33.1855901 C21.1677441,32.5427793 21.5264832,27.4551398 17.4906677,28.4094836 C14.101864,29.2080609 14.7574171,34.0828926 18.4942832,33.1855901 Z" id="Shape" fill="#212121"></path>
                    </g>
                </g>
            </g>
        </g>
    </g>
</svg>
